# xmcd CD database file
#
# Track frame offsets:
#	150
#	13429
#	25209
#	38713
#	52330
#	62759
#	76000
#	91566
#	105370
#	116211
#	129490
#	142357
#	156274
#	168803
#	181182
#	193861
#	208939
#	222255
#	233321
#	247388
#	260629
#	274471
#	288912
#	300504
#	313033
#	326986
#
# Disc length: 4534 seconds
#
# Revision: 0
# Processed by: cddbd v1.5.2PL0 Copyright (c) Steve Scherf et al.
# Submitted via: Fey Extractor 
#
DISCID=8711b41a
DTITLE=jimmie davis - midnihgt blues
DYEAR=2007
DGENRE=Country
TTITLE0=jimmie davis - midnihgt blues - out of town blues
TTITLE1=jimmie davis - midnihgt blues - home town blues
TTITLE2=jimmie davis - midnihgt blues - she's a hum dum dinger (from Dingersville) Pt 1
TTITLE3=jimmie davis - midnihgt blues - penitentiary blues
TTITLE4=jimmie davis - midnihgt blues - arabella blues
TTITLE5=jimmie davis - midnihgt blues - lonely hobo
TTITLE6=jimmie davis - midnihgt blues - a woman's blues
TTITLE7=jimmie davis - midnihgt blues - bear cat mama from horner's corners
TTITLE8=jimmie davis - midnihgt blues - she left a runnin' like a sewing machine
TTITLE9=jimmie davis - midnihgt blues - she's a hum dum dinger (from Dingersville) Vol 2
TTITLE10=jimmie davis - midnihgt blues - market house blues
TTITLE11=jimmie davis - midnihgt blues - midnight blues
TTITLE12=jimmie davis - midnihgt blues - pea pickin' blues
TTITLE13=jimmie davis - midnihgt blues - 1982 blues
TTITLE14=jimmie davis - midnihgt blues - high behind blues
TTITLE15=jimmie davis - midnihgt blues - sewing machine blues
TTITLE16=jimmie davis - midnihgt blues - red nightgown blues
TTITLE17=jimmie davis - midnihgt blues - jimmie davis - davis' salty dog
TTITLE18=jimmie davis - midnihgt blues - the shotgun wedding
TTITLE19=jimmie davis - midnihgt blues - tom cat and pussy blues
TTITLE20=jimmie davis - midnihgt blues - organ grinder blues
TTITLE21=jimmie davis - midnihgt blues - rockin' blues
TTITLE22=jimmie davis - midnihgt blues - wampus kitty mama
TTITLE23=jimmie davis - midnihgt blues - the keyhole in the door
TTITLE24=jimmie davis - midnihgt blues - alimony blues
TTITLE25=jimmie davis - midnihgt blues - easy rider blues
EXTD=YEAR: 2007
EXTT0=
EXTT1=
EXTT2=
EXTT3=
EXTT4=
EXTT5=
EXTT6=
EXTT7=
EXTT8=
EXTT9=
EXTT10=
EXTT11=
EXTT12=
EXTT13=
EXTT14=
EXTT15=
EXTT16=
EXTT17=
EXTT18=
EXTT19=
EXTT20=
EXTT21=
EXTT22=
EXTT23=
EXTT24=
EXTT25=
PLAYORDER=
